<?xml version="1.0" encoding="UTF-8"?>
<svg id="Layer_1" xmlns="http://www.w3.org/2000/svg" viewBox="0 0 248.45 318.06">
  <defs>
    <style>
      .cls-1 {
        fill: #8e4a2a;
      }

      .cls-2 {
        fill: #fce059;
      }

      .cls-3 {
        fill: #7d3f24;
      }

      .cls-4 {
        fill: #f9c214;
      }

      .cls-5 {
        fill: #fbd20a;
      }

      .cls-6 {
        fill: #96512d;
      }
    </style>
  </defs>
  <path class="cls-5" d="M0,26.54c0,.12,0,.25.01.37.04.4.46,4.17,2.05,9.69,2.74,9.47,8.94,24.04,22.71,35.54,20.87,17.44,34.47,31.55,42.79,41.21l.04.06c1.16,1.34,2.22,2.59,3.17,3.75-.07.01-.13.03-.21.04l7.72,9.93s.01.04.03.06c.18.28.3.48.36.57.03.03.04.06.04.06.49.86.78,1.85.83,2.9.15,3.63-2.87,6.83-6.5,6.88-2.49.03-4.66-1.32-5.81-3.34-.93-1.64-2.95-2.33-4.68-1.59h0c-2.01.85-2.9,3.27-1.84,5.17,2.77,4.97,8.48,8.07,14.77,6.97,5.73-1,10.31-5.64,11.3-11.37.58-3.45-.1-6.74-1.68-9.44-.01-.03-.04-.07-.09-.15-.06-.1-.15-.24-.27-.43-.1-.16-.22-.36-.39-.58-.01-.04-.04-.09-.07-.13-3.44-5.24-18.05-25.63-54.76-56.29h-.01s-.03-.04-.04-.06c-.03-.03-.06-.06-.1-.09-5.63-4.72-9.81-10.05-12.95-15.26-.03-.03-.06-.07-.07-.12-4.81-7.1-9.03-15.82-8.92-24.36,0-.09,0-.16.01-.25.12-9.85,8.19-17.82,18.05-17.82,9.96,0,18.07,8.1,18.07,18.07,0,4.81-1.89,9.18-4.96,12.43-1.38,1.46-1.44,3.71-.03,5.13l.13.12c1.43,1.43,3.77,1.43,5.16-.03,4.41-4.57,7.13-10.81,7.13-17.65,0-14.08-11.45-25.51-25.51-25.51C11.45,1.03,0,12.46,0,26.54Z"/>
  <path class="cls-5" d="M220.89,1.03c-14.06,0-25.51,11.43-25.51,25.51,0,6.85,2.72,13.08,7.13,17.65,1.4,1.46,3.74,1.46,5.16.03l.13-.12c1.41-1.43,1.35-3.68-.03-5.13-3.07-3.24-4.96-7.62-4.96-12.43,0-9.97,8.11-18.07,18.07-18.07s17.93,7.96,18.05,17.82c.01.09.01.16.01.25.12,8.54-4.11,17.26-8.92,24.36-.01.04-.04.09-.07.12-3.14,5.21-7.32,10.54-12.95,15.26-.04.03-.07.06-.1.09-.01.01-.03.03-.04.04h-.01c-36.7,30.67-51.32,51.06-54.76,56.3-.03.04-.06.09-.07.13-.16.22-.28.42-.39.58-.12.19-.21.33-.27.43-.04.07-.07.12-.09.15-1.58,2.69-2.26,5.98-1.68,9.44.98,5.73,5.57,10.37,11.3,11.37,6.29,1.1,12-2,14.77-6.97,1.06-1.9.17-4.32-1.84-5.17h0c-1.74-.74-3.75-.06-4.68,1.59-1.15,2.02-3.32,3.37-5.81,3.34-3.63-.05-6.65-3.25-6.5-6.88.04-1.05.34-2.04.83-2.9,0,0,.01-.03.04-.06.06-.09.18-.28.36-.57.01-.01.03-.03.03-.06l7.72-9.93c-.07-.01-.13-.03-.21-.04.95-1.16,2.01-2.41,3.17-3.75l.04-.06c8.32-9.66,21.92-23.77,42.79-41.21,13.77-11.5,19.97-26.08,22.71-35.54,1.59-5.52,2.01-9.29,2.05-9.69.01-.12.01-.25.01-.37,0-14.08-11.45-25.51-25.51-25.51Z"/>
  <path class="cls-1" d="M174.23,241.41v65.17h-87.23c22.04-10.86,53.71-30.99,79.8-65.17h7.43Z"/>
  <rect class="cls-3" x="61.28" y="306.57" width="121.64" height="11.48"/>
  <path class="cls-6" d="M166.81,241.41c-26.09,34.19-57.76,54.31-79.8,65.17h-17.03v-65.17h96.83Z"/>
  <path class="cls-4" d="M198.34,0c-6.62,127.64-61.45,147.02-61.45,147.02-9.15,6.36-7.87,19.35-7.87,19.35-6.64-6.64-13.9,0-13.9,0,0,0,1.29-12.99-7.86-19.35,0,0-17.64-6.24-34.11-34.92l3.54.45C174.62,107.84,170.11,0,170.11,0h28.23Z"/>
  <path class="cls-5" d="M76.69,112.55l-3.54-.45C60.57,90.22,48.68,55.25,45.8,0h124.31s4.51,107.84-93.42,112.55Z"/>
  <path class="cls-2" d="M53.08,7.29h25.03s-19.89,36.33-11.38,69.92c0,0-13.65-30.72-13.65-69.92Z"/>
  <rect class="cls-5" x="82.63" y="255.06" width="78.82" height="39.1"/>
  <path class="cls-5" d="M246.4,36.6c1.28-2.98,2.01-6.25,2.05-9.69-.04.4-.46,4.17-2.05,9.69Z"/>
  <path class="cls-5" d="M163.2,237.58v3.83h-82.27v-3.83s13.14-9.94,28.35-9.94v-8.78l3.2-7.77v-27.98l-2.01-2.86c-1.44-2.05-1.47-4.76-.07-6.83l4.72-7.05s7.26-6.64,13.9,0l4.73,7.05c1.38,2.07,1.35,4.78-.07,6.83l-2.01,2.86v27.98l3.2,7.77v8.78c15.21,0,28.34,9.94,28.34,9.94Z"/>
</svg>